<svg xmlns="http://www.w3.org/2000/svg" viewBox="0 0 64 64">
  <defs>
    <linearGradient id="bg" x1="0%" y1="0%" x2="100%" y2="100%">
      <stop offset="0%" stop-color="#0ea5e9" />
      <stop offset="100%" stop-color="#2563eb" />
    </linearGradient>
  </defs>
  <rect width="64" height="64" rx="16" fill="url(#bg)" />
  <path
    d="M16 18h32a2 2 0 0 1 2 2v20a2 2 0 0 1-2 2H31l-7 6v-6H16a2 2 0 0 1-2-2V20a2 2 0 0 1 2-2Z"
    fill="#ffffff"
    opacity="0.95"
  />
  <path
    d="M22 31c4-6 9-9 16-9 2 0 4 .3 6 .8M24 36c5-3 10-4.5 16-4.5 2.5 0 4.8.2 6.5.6"
    fill="none"
    stroke="#2563eb"
    stroke-linecap="round"
    stroke-width="3"
  />
</svg>
